<svg xmlns="http://www.w3.org/2000/svg" viewBox="0 0 1200 700" width="1200" height="700">
  <defs>
    <filter id="aglow">
      <feGaussianBlur stdDeviation="3" result="blur"/>
      <feMerge><feMergeNode in="blur"/><feMergeNode in="SourceGraphic"/></feMerge>
    </filter>
    <linearGradient id="abgGrad" x1="0" y1="0" x2="1" y2="1">
      <stop offset="0%" stop-color="#0d1117"/>
      <stop offset="100%" stop-color="#010409"/>
    </linearGradient>
    <radialGradient id="centerGlow" cx="50%" cy="50%" r="50%">
      <stop offset="0%" stop-color="rgba(139,148,158,0.10)"/>
      <stop offset="100%" stop-color="rgba(13,17,23,0)"/>
    </radialGradient>
  </defs>

  <rect width="1200" height="700" fill="url(#abgGrad)" rx="12"/>
  <circle cx="600" cy="350" r="250" fill="url(#centerGlow)"/>

  <text x="600" y="35" text-anchor="middle" fill="#e6edf3" font-family="monospace" font-size="18" font-weight="bold">🤖 Agent Orchestra (11)</text>

  <g stroke="#21262d" stroke-width="1.5" stroke-dasharray="4,4" opacity="0.5">
    <line x1="600" y1="350" x2="150" y2="140"/>
    <line x1="600" y1="350" x2="380" y2="140"/>
    <line x1="600" y1="350" x2="600" y2="140"/>
    <line x1="600" y1="350" x2="820" y2="140"/>
    <line x1="600" y1="350" x2="1050" y2="140"/>
    <line x1="600" y1="350" x2="100" y2="350"/>
    <line x1="600" y1="350" x2="1100" y2="350"/>
    <line x1="600" y1="350" x2="200" y2="560"/>
    <line x1="600" y1="350" x2="480" y2="560"/>
    <line x1="600" y1="350" x2="720" y2="560"/>
    <line x1="600" y1="350" x2="1000" y2="560"/>
  </g>

  <rect x="495" y="310" width="210" height="80" rx="12" fill="rgba(230,237,243,0.08)" stroke="#e6edf3" stroke-width="2" filter="url(#aglow)"/>
  <text x="600" y="340" text-anchor="middle" fill="#e6edf3" font-family="monospace" font-size="14" font-weight="bold">Main Orchestrator</text>
  <text x="600" y="360" text-anchor="middle" fill="#8b949e" font-family="monospace" font-size="9">openai-codex/gpt-5.4</text>

  <!-- Top row -->
  <g transform="translate(50, 80)">
    <rect width="200" height="80" rx="10" fill="rgba(240,136,62,0.08)" stroke="#f0883e" stroke-width="1.5"/>
    <text x="100" y="22" text-anchor="middle" fill="#f0883e" font-family="monospace" font-size="13" font-weight="bold">🔍 finder</text>
    <text x="100" y="40" text-anchor="middle" fill="#8b949e" font-family="monospace" font-size="7">openai-codex/gpt-5.4</text>
    <text x="100" y="56" text-anchor="middle" fill="#e6edf3" font-family="monospace" font-size="9">Fast File &amp; Code</text>
    <text x="100" y="70" text-anchor="middle" fill="#e6edf3" font-family="monospace" font-size="9">Lookup</text>
    <circle cx="185" cy="14" r="5" fill="#f0883e" opacity="0.8"/>
  </g>

  <g transform="translate(280, 80)">
    <rect width="200" height="80" rx="10" fill="rgba(240,136,62,0.08)" stroke="#f0883e" stroke-width="1.5"/>
    <text x="100" y="22" text-anchor="middle" fill="#f0883e" font-family="monospace" font-size="13" font-weight="bold">🏃 worker-fast</text>
    <text x="100" y="40" text-anchor="middle" fill="#8b949e" font-family="monospace" font-size="7">openai-codex/gpt-5.4</text>
    <text x="100" y="56" text-anchor="middle" fill="#e6edf3" font-family="monospace" font-size="9">Lightweight</text>
    <text x="100" y="70" text-anchor="middle" fill="#e6edf3" font-family="monospace" font-size="9">Simple Tasks</text>
    <circle cx="185" cy="14" r="5" fill="#f0883e" opacity="0.8"/>
  </g>

  <g transform="translate(500, 80)">
    <rect width="200" height="80" rx="10" fill="rgba(210,168,255,0.10)" stroke="#d2a8ff" stroke-width="1.5"/>
    <text x="100" y="22" text-anchor="middle" fill="#d2a8ff" font-family="monospace" font-size="13" font-weight="bold">⚡ worker</text>
    <text x="100" y="40" text-anchor="middle" fill="#8b949e" font-family="monospace" font-size="7">anthropic/claude-opus-4-6</text>
    <text x="100" y="56" text-anchor="middle" fill="#e6edf3" font-family="monospace" font-size="9">General-Purpose</text>
    <text x="100" y="70" text-anchor="middle" fill="#e6edf3" font-family="monospace" font-size="9">Executor</text>
    <circle cx="185" cy="14" r="5" fill="#d2a8ff" opacity="0.85"/>
  </g>

  <g transform="translate(720, 80)">
    <rect width="200" height="80" rx="10" fill="rgba(210,168,255,0.10)" stroke="#d2a8ff" stroke-width="1.5"/>
    <text x="100" y="22" text-anchor="middle" fill="#d2a8ff" font-family="monospace" font-size="13" font-weight="bold">📐 planner</text>
    <text x="100" y="40" text-anchor="middle" fill="#8b949e" font-family="monospace" font-size="7">anthropic/claude-opus-4-6</text>
    <text x="100" y="56" text-anchor="middle" fill="#e6edf3" font-family="monospace" font-size="9">Implementation</text>
    <text x="100" y="70" text-anchor="middle" fill="#e6edf3" font-family="monospace" font-size="9">Architect</text>
    <circle cx="185" cy="14" r="5" fill="#d2a8ff" opacity="0.85"/>
  </g>

  <g transform="translate(950, 80)">
    <rect width="200" height="80" rx="10" fill="rgba(240,136,62,0.08)" stroke="#f0883e" stroke-width="1.5"/>
    <text x="100" y="22" text-anchor="middle" fill="#f0883e" font-family="monospace" font-size="13" font-weight="bold">🖥️ browser</text>
    <text x="100" y="40" text-anchor="middle" fill="#8b949e" font-family="monospace" font-size="7">openai-codex/gpt-5.4</text>
    <text x="100" y="56" text-anchor="middle" fill="#e6edf3" font-family="monospace" font-size="9">Browser</text>
    <text x="100" y="70" text-anchor="middle" fill="#e6edf3" font-family="monospace" font-size="9">Automation</text>
    <circle cx="185" cy="14" r="5" fill="#f0883e" opacity="0.8"/>
  </g>

  <!-- Middle row -->
  <g transform="translate(0, 305)">
    <rect width="200" height="80" rx="10" fill="rgba(88,166,255,0.08)" stroke="#58a6ff" stroke-width="1.5"/>
    <text x="100" y="22" text-anchor="middle" fill="#58a6ff" font-family="monospace" font-size="13" font-weight="bold">🌐 searcher</text>
    <text x="100" y="40" text-anchor="middle" fill="#8b949e" font-family="monospace" font-size="7">anthropic/claude-sonnet-4-6</text>
    <text x="100" y="56" text-anchor="middle" fill="#e6edf3" font-family="monospace" font-size="9">Web Research</text>
    <text x="100" y="70" text-anchor="middle" fill="#e6edf3" font-family="monospace" font-size="9">&amp; Discovery</text>
    <circle cx="185" cy="14" r="5" fill="#58a6ff" opacity="0.8"/>
  </g>

  <g transform="translate(1000, 305)">
    <rect width="200" height="80" rx="10" fill="rgba(240,136,62,0.08)" stroke="#f0883e" stroke-width="1.5"/>
    <text x="100" y="22" text-anchor="middle" fill="#f0883e" font-family="monospace" font-size="13" font-weight="bold">🔎 reviewer</text>
    <text x="100" y="40" text-anchor="middle" fill="#8b949e" font-family="monospace" font-size="7">openai-codex/gpt-5.4</text>
    <text x="100" y="56" text-anchor="middle" fill="#e6edf3" font-family="monospace" font-size="9">Code</text>
    <text x="100" y="70" text-anchor="middle" fill="#e6edf3" font-family="monospace" font-size="9">Review</text>
    <circle cx="185" cy="14" r="5" fill="#f0883e" opacity="0.8"/>
  </g>

  <!-- Bottom row -->
  <g transform="translate(100, 505)">
    <rect width="200" height="80" rx="10" fill="rgba(240,136,62,0.08)" stroke="#f0883e" stroke-width="1.5"/>
    <text x="100" y="22" text-anchor="middle" fill="#f0883e" font-family="monospace" font-size="13" font-weight="bold">🥊 challenger</text>
    <text x="100" y="40" text-anchor="middle" fill="#8b949e" font-family="monospace" font-size="7">openai-codex/gpt-5.4</text>
    <text x="100" y="56" text-anchor="middle" fill="#e6edf3" font-family="monospace" font-size="9">Pressure</text>
    <text x="100" y="70" text-anchor="middle" fill="#e6edf3" font-family="monospace" font-size="9">Testing</text>
    <circle cx="185" cy="14" r="5" fill="#f0883e" opacity="0.8"/>
  </g>

  <g transform="translate(380, 505)">
    <rect width="200" height="80" rx="10" fill="rgba(210,168,255,0.10)" stroke="#d2a8ff" stroke-width="1.5"/>
    <text x="100" y="22" text-anchor="middle" fill="#d2a8ff" font-family="monospace" font-size="13" font-weight="bold">✅ verifier</text>
    <text x="100" y="40" text-anchor="middle" fill="#8b949e" font-family="monospace" font-size="7">anthropic/claude-opus-4-6</text>
    <text x="100" y="56" text-anchor="middle" fill="#e6edf3" font-family="monospace" font-size="9">3-Tier</text>
    <text x="100" y="70" text-anchor="middle" fill="#e6edf3" font-family="monospace" font-size="9">Validation</text>
    <circle cx="185" cy="14" r="5" fill="#d2a8ff" opacity="0.85"/>
  </g>

  <g transform="translate(620, 505)">
    <rect width="200" height="80" rx="10" fill="rgba(240,136,62,0.08)" stroke="#f0883e" stroke-width="1.5"/>
    <text x="100" y="22" text-anchor="middle" fill="#f0883e" font-family="monospace" font-size="13" font-weight="bold">⚖️ decider</text>
    <text x="100" y="40" text-anchor="middle" fill="#8b949e" font-family="monospace" font-size="7">openai-codex/gpt-5.4</text>
    <text x="100" y="56" text-anchor="middle" fill="#e6edf3" font-family="monospace" font-size="9">Technical</text>
    <text x="100" y="70" text-anchor="middle" fill="#e6edf3" font-family="monospace" font-size="9">Decision Maker</text>
    <circle cx="185" cy="14" r="5" fill="#f0883e" opacity="0.8"/>
  </g>

  <g transform="translate(900, 505)">
    <rect width="200" height="80" rx="10" fill="rgba(88,166,255,0.08)" stroke="#58a6ff" stroke-width="1.5"/>
    <text x="100" y="22" text-anchor="middle" fill="#58a6ff" font-family="monospace" font-size="13" font-weight="bold">✨ simplifier</text>
    <text x="100" y="40" text-anchor="middle" fill="#8b949e" font-family="monospace" font-size="7">anthropic/claude-sonnet-4-6</text>
    <text x="100" y="56" text-anchor="middle" fill="#e6edf3" font-family="monospace" font-size="9">Code Cleanup</text>
    <text x="100" y="70" text-anchor="middle" fill="#e6edf3" font-family="monospace" font-size="9">&amp; Polishing</text>
    <circle cx="185" cy="14" r="5" fill="#58a6ff" opacity="0.8"/>
  </g>

  <g transform="translate(30, 664)" font-family="monospace" font-size="10">
    <circle cx="8" cy="6" r="5" fill="#f0883e" opacity="0.9"/>
    <text x="20" y="10" fill="#8b949e">openai-codex/gpt-5.4</text>
    <circle cx="245" cy="6" r="5" fill="#58a6ff" opacity="0.9"/>
    <text x="257" y="10" fill="#8b949e">anthropic/claude-sonnet-4-6</text>
    <circle cx="535" cy="6" r="5" fill="#d2a8ff" opacity="0.95"/>
    <text x="547" y="10" fill="#8b949e">anthropic/claude-opus-4-6</text>
  </g>
</svg>
